<?xml version="1.0" encoding="utf-8"?>
<!-- Generator: Adobe Illustrator 16.0.0, SVG Export Plug-In . SVG Version: 6.00 Build 0)  -->
<!DOCTYPE svg PUBLIC "-//W3C//DTD SVG 1.1//EN" "http://www.w3.org/Graphics/SVG/1.1/DTD/svg11.dtd">
<svg version="1.1" id="Layer_1" xmlns="http://www.w3.org/2000/svg" xmlns:xlink="http://www.w3.org/1999/xlink" x="0px" y="0px"
	 width="110px" height="48px" viewBox="0 0 110 48" enable-background="new 0 0 110 48" xml:space="preserve">
<g>
	<g>
		<path fill-rule="evenodd" clip-rule="evenodd" fill="#999999" d="M56,9c-8.284,0-15,6.716-15,15s6.716,15,15,15s15-6.716,15-15
			S64.284,9,56,9z M5.649,8C2.529,8,0,11.792,0,16.471c0,3.417,1.352,6.354,3.295,7.693v13.535C3.295,38.971,4.35,40,5.649,40
			s2.354-1.029,2.354-2.301V24.164c1.943-1.339,3.295-4.276,3.295-7.693C11.299,11.792,8.77,8,5.649,8z M26.446,10.823
			c-0.443,0-0.803,0.361-0.803,0.807v5.647h-1.607V11.63c0-0.446-0.359-0.807-0.803-0.807s-0.804,0.361-0.804,0.807v5.647h-1.607
			V11.63c0-0.446-0.36-0.807-0.804-0.807s-0.803,0.361-0.803,0.807v5.647h-1.607V11.63c0-0.446-0.36-0.807-0.803-0.807
			C16.36,10.823,16,11.185,16,11.63v6.454c0,0.105,0.023,0.205,0.06,0.298c0.277,2.61,1.521,4.792,3.221,5.856v13.461
			c0,1.271,1.049,2.301,2.344,2.301c1.294,0,2.343-1.029,2.343-2.301V24.238c1.7-1.065,2.944-3.246,3.221-5.856
			c0.037-0.093,0.06-0.192,0.06-0.298V11.63C27.25,11.185,26.89,10.823,26.446,10.823z M90.155,8C89.12,8,88.28,8.843,88.28,9.882
			v27.817c0,1.271,1.05,2.301,2.344,2.301c1.295,0,2.344-1.029,2.344-2.301v-8.993h0.938c1.035,0,1.875-0.843,1.875-1.883
			C95.78,26.823,95.999,8,90.155,8z M56,0C42.745,0,32,10.745,32,24s10.745,24,24,24s24-10.745,24-24S69.255,0,56,0z M56,40
			c-8.836,0-16-7.164-16-16c0-8.836,7.164-16,16-16c8.837,0,16,7.164,16,16C72,32.836,64.837,40,56,40z M105,8
			c-0.552,0-1,0.421-1,0.941v30.117c0,0.52,0.448,0.941,1,0.941c0.553,0,1-0.422,1-0.941V8.941C106,8.421,105.553,8,105,8z M109,8
			c-0.552,0-1,0.421-1,0.941v30.117c0,0.52,0.448,0.941,1,0.941c0.553,0,1-0.422,1-0.941V8.941C110,8.421,109.553,8,109,8z"/>
	</g>
</g>
</svg>
